<svg xmlns="http://www.w3.org/2000/svg" viewBox="0 0 24 24" shapeRendering="geometricPrecision" textRendering="geometricPrecision">
  <ellipse rx="7.675801" ry="7.551127" transform="matrix(1.172516 0 0 1.191875 12 12)" fill="none" strokeWidth="0.5" />
  <line x1="0" y1="-1.888536" x2="0" y2="1.888536" transform="matrix(1 0 0 1.266668 21 4.863592)" fill="none" strokeWidth="0.24" />
  <line x1="0" y1="-1.888536" x2="0" y2="1.888536" transform="matrix(1 0 0 1.266668 3.000001 4.700242)" fill="none" strokeWidth="0.24" />
  <line x1="0" y1="-1.888536" x2="0" y2="1.888536" transform="matrix(-.011381 0.999935-1.266586-.014416 5.391994 2.335319)" fill="none" strokeWidth="0.24" />
  <line x1="0" y1="-1.888536" x2="0" y2="1.888536" transform="matrix(-.011381 0.999935-1.266586-.014416 18.608007 2.444219)" fill="none" strokeWidth="0.24" />
  <line x1="0" y1="-1.888536" x2="0" y2="1.888536" transform="matrix(-.354716-.934974 0.810845-.307623 16.216014 9.399132)" fill="none" strokeWidth="0.5" />
  <ellipse rx="1.5" ry="1.5" transform="translate(13.299488 13.700514)" fill="none" strokeWidth="0.5" strokeDasharray="4,4" />
  <ellipse rx="1.5" ry="1.5" transform="matrix(.125739 0.992063-.992063 0.125739 10.500001 13.676704)" fill="none" strokeWidth="0.5" strokeDasharray="4,4" />
  <ellipse rx="1.64" ry="1.64" transform="translate(7.783987 9.399132)" fill="none" strokeWidth="0.5" />
</svg>