<svg id="visual" viewBox="0 0 900 600" width="900" height="600" xmlns="http://www.w3.org/2000/svg" xmlns:xlink="http://www.w3.org/1999/xlink" version="1.1"><g stroke-width="1" stroke-linejoin="bevel"><path d="M407 386L293 490L467 483Z" fill="#16223c" stroke="#16223c"></path><path d="M293 490L323 600L467 483Z" fill="#192643" stroke="#192643"></path><path d="M323 600L566 600L467 483Z" fill="#10192c" stroke="#10192c"></path><path d="M467 483L591 362L407 386Z" fill="#182440" stroke="#182440"></path><path d="M566 600L591 362L467 483Z" fill="#141e36" stroke="#141e36"></path><path d="M191 265L293 490L407 386Z" fill="#10192c" stroke="#10192c"></path><path d="M191 265L114 398L293 490Z" fill="#0f1729" stroke="#0f1729"></path><path d="M293 490L107 600L323 600Z" fill="#1b2847" stroke="#1b2847"></path><path d="M330 99L191 265L407 386Z" fill="#111b2f" stroke="#111b2f"></path><path d="M114 398L107 600L293 490Z" fill="#10192c" stroke="#10192c"></path><path d="M566 600L724 527L591 362Z" fill="#182440" stroke="#182440"></path><path d="M707 127L477 109L591 362Z" fill="#1b2847" stroke="#1b2847"></path><path d="M591 362L477 109L407 386Z" fill="#182440" stroke="#182440"></path><path d="M477 109L330 99L407 386Z" fill="#141e36" stroke="#141e36"></path><path d="M114 398L0 539L107 600Z" fill="#10192c" stroke="#10192c"></path><path d="M0 239L0 539L114 398Z" fill="#1b2847" stroke="#1b2847"></path><path d="M566 600L743 600L724 527Z" fill="#16223c" stroke="#16223c"></path><path d="M0 539L0 600L107 600Z" fill="#16223c" stroke="#16223c"></path><path d="M330 99L229 95L191 265Z" fill="#0f1729" stroke="#0f1729"></path><path d="M191 265L0 239L114 398Z" fill="#131c33" stroke="#131c33"></path><path d="M900 414L760 268L724 527Z" fill="#10192c" stroke="#10192c"></path><path d="M724 527L760 268L591 362Z" fill="#192643" stroke="#192643"></path><path d="M0 165L0 239L191 265Z" fill="#10192c" stroke="#10192c"></path><path d="M760 268L707 127L591 362Z" fill="#192643" stroke="#192643"></path><path d="M330 99L294 0L229 95Z" fill="#16223c" stroke="#16223c"></path><path d="M229 95L0 165L191 265Z" fill="#0f1729" stroke="#0f1729"></path><path d="M477 109L294 0L330 99Z" fill="#1b2847" stroke="#1b2847"></path><path d="M551 0L294 0L477 109Z" fill="#111b2f" stroke="#111b2f"></path><path d="M0 0L0 165L229 95Z" fill="#111b2f" stroke="#111b2f"></path><path d="M294 0L252 0L229 95Z" fill="#152039" stroke="#152039"></path><path d="M707 127L551 0L477 109Z" fill="#1c2a4a" stroke="#1c2a4a"></path><path d="M760 268L900 215L707 127Z" fill="#16223c" stroke="#16223c"></path><path d="M900 600L900 414L724 527Z" fill="#192643" stroke="#192643"></path><path d="M743 600L900 600L724 527Z" fill="#16223c" stroke="#16223c"></path><path d="M900 414L900 215L760 268Z" fill="#1b2847" stroke="#1b2847"></path><path d="M707 127L731 0L551 0Z" fill="#1c2a4a" stroke="#1c2a4a"></path><path d="M900 72L731 0L707 127Z" fill="#111b2f" stroke="#111b2f"></path><path d="M252 0L0 0L229 95Z" fill="#16223c" stroke="#16223c"></path><path d="M900 215L900 72L707 127Z" fill="#111b2f" stroke="#111b2f"></path><path d="M900 72L900 0L731 0Z" fill="#16223c" stroke="#16223c"></path></g></svg>